<?xml version="1.0" encoding="utf-8" standalone="no"?>
<!DOCTYPE svg PUBLIC "-//W3C//DTD SVG 1.1//EN"
  "http://www.w3.org/Graphics/SVG/1.1/DTD/svg11.dtd">
<svg xmlns:xlink="http://www.w3.org/1999/xlink" width="269.040625pt" height="255.36pt" viewBox="0 0 269.040625 255.36" xmlns="http://www.w3.org/2000/svg" version="1.1">
 <metadata>
  <rdf:RDF xmlns:dc="http://purl.org/dc/elements/1.1/" xmlns:cc="http://creativecommons.org/ns#" xmlns:rdf="http://www.w3.org/1999/02/22-rdf-syntax-ns#">
   <cc:Work>
    <dc:type rdf:resource="http://purl.org/dc/dcmitype/StillImage"/>
    <dc:date>2026-09-06T17:53:07.237859</dc:date>
    <dc:format>image/svg+xml</dc:format>
    <dc:creator>
     <cc:Agent>
      <dc:title>Matplotlib v3.10.6, https://matplotlib.org/</dc:title>
     </cc:Agent>
    </dc:creator>
   </cc:Work>
  </rdf:RDF>
 </metadata>
 <defs>
  <style type="text/css">*{stroke-linejoin: round; stroke-linecap: butt}</style>
 </defs>
 <g id="figure_1">
  <g id="patch_1">
   <path d="M 0 255.36 
L 269.040625 255.36 
L 269.040625 0 
L 0 0 
L 0 255.36 
z
" style="fill: none"/>
  </g>
  <g id="axes_1">
   <g id="patch_2">
    <path d="M 37.320313 67.28 
C 42.093968 67.28 46.67275 65.383406 50.048235 62.007922 
C 53.423719 58.632438 55.320313 54.053656 55.320313 49.28 
C 55.320313 44.506344 53.423719 39.927562 50.048235 36.552078 
C 46.67275 33.176594 42.093968 31.28 37.320313 31.28 
C 32.546657 31.28 27.967875 33.176594 24.59239 36.552078 
C 21.216906 39.927562 19.320313 44.506344 19.320313 49.28 
C 19.320313 54.053656 21.216906 58.632438 24.59239 62.007922 
C 27.967875 65.383406 32.546657 67.28 37.320313 67.28 
L 37.320313 67.28 
z
" clip-path="url(#pfe83fe27ee)" style="fill: none; stroke: #000000; stroke-width: 2; stroke-linejoin: miter"/>
   </g>
   <g id="patch_3">
    <path d="M 37.320313 182.48 
C 42.093968 182.48 46.67275 180.583406 50.048235 177.207922 
C 53.423719 173.832438 55.320313 169.253656 55.320313 164.48 
C 55.320313 159.706344 53.423719 155.127562 50.048235 151.752078 
C 46.67275 148.376594 42.093968 146.48 37.320313 146.48 
C 32.546657 146.48 27.967875 148.376594 24.59239 151.752078 
C 21.216906 155.127562 19.320313 159.706344 19.320313 164.48 
C 19.320313 169.253656 21.216906 173.832438 24.59239 177.207922 
C 27.967875 180.583406 32.546657 182.48 37.320313 182.48 
L 37.320313 182.48 
z
" clip-path="url(#pfe83fe27ee)" style="fill: none; stroke: #000000; stroke-width: 2; stroke-linejoin: miter"/>
   </g>
   <g id="line2d_1">
    <path d="M 37.320313 67.28 
L 37.320313 67.28 
M 37.320313 31.28 
L 37.320313 31.28 
" clip-path="url(#pfe83fe27ee)" style="fill: none; stroke: #000000; stroke-width: 2; stroke-linecap: round"/>
   </g>
   <g id="line2d_2">
    <path d="M 40.920313 58.28 
L 33.720313 58.28 
" clip-path="url(#pfe83fe27ee)" style="fill: none; stroke: #000000; stroke-width: 2; stroke-linecap: round"/>
   </g>
   <g id="line2d_3">
    <path d="M 37.320313 43.88 
L 37.320313 36.68 
" clip-path="url(#pfe83fe27ee)" style="fill: none; stroke: #000000; stroke-width: 2; stroke-linecap: round"/>
   </g>
   <g id="line2d_4">
    <path d="M 40.920313 40.28 
L 33.720313 40.28 
" clip-path="url(#pfe83fe27ee)" style="fill: none; stroke: #000000; stroke-width: 2; stroke-linecap: round"/>
   </g>
   <g id="line2d_5">
    <path d="M 37.320313 31.28 
L 40.320313 22.28 
L 46.320313 40.28 
L 52.320313 22.28 
L 58.320313 40.28 
L 64.320313 22.28 
L 70.320313 40.28 
L 73.320313 31.28 
" clip-path="url(#pfe83fe27ee)" style="fill: none; stroke: #000000; stroke-width: 2; stroke-linecap: round"/>
   </g>
   <g id="line2d_6">
    <path d="M 73.320313 31.28 
L 76.320313 22.28 
L 82.320313 40.28 
L 88.320313 22.28 
L 94.320313 40.28 
L 100.320313 22.28 
L 106.320313 40.28 
L 109.320313 31.28 
" clip-path="url(#pfe83fe27ee)" style="fill: none; stroke: #000000; stroke-width: 2; stroke-linecap: round"/>
   </g>
   <g id="line2d_7">
    <path d="M 109.320313 31.28 
L 118.320313 31.28 
L 127.320313 31.28 
" clip-path="url(#pfe83fe27ee)" style="fill: none; stroke: #000000; stroke-width: 2; stroke-linecap: round"/>
   </g>
   <g id="line2d_8">
    <path d="M 127.320313 31.28 
L 112.920313 31.28 
L 112.920313 22.28 
L 112.920313 40.28 
M 108.600313 24.98 
L 108.600313 37.58 
M 104.280313 29.48 
L 104.280313 33.08 
" clip-path="url(#pfe83fe27ee)" style="fill: none; stroke: #000000; stroke-width: 2; stroke-linecap: round"/>
   </g>
   <g id="line2d_9">
    <path d="M 127.320313 31.28 
L 118.320313 31.28 
L 109.320313 31.28 
" clip-path="url(#pfe83fe27ee)" style="fill: none; stroke: #000000; stroke-width: 2; stroke-linecap: round"/>
   </g>
   <g id="line2d_10">
    <path d="M 109.320313 31.28 
L 109.320313 40.28 
L 109.320313 49.28 
" clip-path="url(#pfe83fe27ee)" style="fill: none; stroke: #000000; stroke-width: 2; stroke-linecap: round"/>
   </g>
   <g id="line2d_11">
    <path d="M 109.320313 49.28 
L 94.920313 49.28 
L 94.920313 40.28 
L 94.920313 58.28 
M 90.600313 42.98 
L 90.600313 55.58 
M 86.280313 47.48 
L 86.280313 51.08 
" clip-path="url(#pfe83fe27ee)" style="fill: none; stroke: #000000; stroke-width: 2; stroke-linecap: round"/>
   </g>
   <g id="line2d_12">
    <path d="M 37.320313 182.48 
L 37.320313 182.48 
M 37.320313 146.48 
L 37.320313 146.48 
" clip-path="url(#pfe83fe27ee)" style="fill: none; stroke: #000000; stroke-width: 2; stroke-linecap: round"/>
   </g>
   <g id="line2d_13">
    <path d="M 40.920313 173.48 
L 33.720313 173.48 
" clip-path="url(#pfe83fe27ee)" style="fill: none; stroke: #000000; stroke-width: 2; stroke-linecap: round"/>
   </g>
   <g id="line2d_14">
    <path d="M 37.320313 159.08 
L 37.320313 151.88 
" clip-path="url(#pfe83fe27ee)" style="fill: none; stroke: #000000; stroke-width: 2; stroke-linecap: round"/>
   </g>
   <g id="line2d_15">
    <path d="M 40.920313 155.48 
L 33.720313 155.48 
" clip-path="url(#pfe83fe27ee)" style="fill: none; stroke: #000000; stroke-width: 2; stroke-linecap: round"/>
   </g>
   <g id="line2d_16">
    <path d="M 37.320313 182.48 
L 28.320313 179.48 
L 46.320313 173.48 
L 28.320313 167.48 
L 46.320313 161.48 
L 28.320313 155.48 
L 46.320313 149.48 
L 37.320313 146.48 
" clip-path="url(#pfe83fe27ee)" style="fill: none; stroke: #000000; stroke-width: 2; stroke-linecap: round"/>
   </g>
   <g id="line2d_17">
    <path d="M 37.320313 182.48 
L 40.320313 173.48 
L 46.320313 191.48 
L 52.320313 173.48 
L 58.320313 191.48 
L 64.320313 173.48 
L 70.320313 191.48 
L 73.320313 182.48 
" clip-path="url(#pfe83fe27ee)" style="fill: none; stroke: #000000; stroke-width: 2; stroke-linecap: round"/>
   </g>
   <g id="line2d_18">
    <path d="M 37.320313 182.48 
L 46.320313 185.48 
L 28.320313 191.48 
L 46.320313 197.48 
L 28.320313 203.48 
L 46.320313 209.48 
L 28.320313 215.48 
L 37.320313 218.48 
" clip-path="url(#pfe83fe27ee)" style="fill: none; stroke: #000000; stroke-width: 2; stroke-linecap: round"/>
   </g>
   <g id="line2d_19">
    <path d="M 37.320313 182.48 
L 46.320313 182.48 
L 55.320313 182.48 
" clip-path="url(#pfe83fe27ee)" style="fill: none; stroke: #000000; stroke-width: 2; stroke-linecap: round"/>
   </g>
   <g id="line2d_20">
    <path d="M 55.320313 182.48 
L 40.920313 182.48 
L 40.920313 173.48 
L 40.920313 191.48 
M 36.600313 176.18 
L 36.600313 188.78 
M 32.280313 180.68 
L 32.280313 184.28 
" clip-path="url(#pfe83fe27ee)" style="fill: none; stroke: #000000; stroke-width: 2; stroke-linecap: round"/>
   </g>
   <g id="line2d_21">
    <path d="M 55.320313 182.48 
L 46.320313 182.48 
L 37.320313 182.48 
" clip-path="url(#pfe83fe27ee)" style="fill: none; stroke: #000000; stroke-width: 2; stroke-linecap: round"/>
   </g>
   <g id="line2d_22">
    <path d="M 37.320313 182.48 
L 37.320313 191.48 
L 37.320313 200.48 
" clip-path="url(#pfe83fe27ee)" style="fill: none; stroke: #000000; stroke-width: 2; stroke-linecap: round"/>
   </g>
   <g id="line2d_23">
    <path d="M 37.320313 200.48 
L 22.920313 200.48 
L 22.920313 191.48 
L 22.920313 209.48 
M 18.600313 194.18 
L 18.600313 206.78 
M 14.280313 198.68 
L 14.280313 202.28 
" clip-path="url(#pfe83fe27ee)" style="fill: none; stroke: #000000; stroke-width: 2; stroke-linecap: round"/>
   </g>
   <g id="text_1">
    <!-- Vin -->
    <g transform="translate(26.308438 81.517812) scale(0.14 -0.14)">
     <defs>
      <path id="DejaVuSans-56" d="M 1831 0 
L 50 4666 
L 709 4666 
L 2188 738 
L 3669 4666 
L 4325 4666 
L 2547 0 
L 1831 0 
z
" transform="scale(0.015625)"/>
      <path id="DejaVuSans-69" d="M 603 3500 
L 1178 3500 
L 1178 0 
L 603 0 
L 603 3500 
z
M 603 4863 
L 1178 4863 
L 1178 4134 
L 603 4134 
L 603 4863 
z
" transform="scale(0.015625)"/>
      <path id="DejaVuSans-6e" d="M 3513 2113 
L 3513 0 
L 2938 0 
L 2938 2094 
Q 2938 2591 2744 2837 
Q 2550 3084 2163 3084 
Q 1697 3084 1428 2787 
Q 1159 2491 1159 1978 
L 1159 0 
L 581 0 
L 581 3500 
L 1159 3500 
L 1159 2956 
Q 1366 3272 1645 3428 
Q 1925 3584 2291 3584 
Q 2894 3584 3203 3211 
Q 3513 2838 3513 2113 
z
" transform="scale(0.015625)"/>
     </defs>
     <use xlink:href="#DejaVuSans-56"/>
     <use xlink:href="#DejaVuSans-69" transform="translate(66.158203 0)"/>
     <use xlink:href="#DejaVuSans-6e" transform="translate(93.941406 0)"/>
    </g>
   </g>
   <g id="text_2">
    <!-- R1 -->
    <g transform="translate(46.002656 15.768438) scale(0.14 -0.14)">
     <defs>
      <path id="DejaVuSans-52" d="M 2841 2188 
Q 3044 2119 3236 1894 
Q 3428 1669 3622 1275 
L 4263 0 
L 3584 0 
L 2988 1197 
Q 2756 1666 2539 1819 
Q 2322 1972 1947 1972 
L 1259 1972 
L 1259 0 
L 628 0 
L 628 4666 
L 2053 4666 
Q 2853 4666 3247 4331 
Q 3641 3997 3641 3322 
Q 3641 2881 3436 2590 
Q 3231 2300 2841 2188 
z
M 1259 4147 
L 1259 2491 
L 2053 2491 
Q 2509 2491 2742 2702 
Q 2975 2913 2975 3322 
Q 2975 3731 2742 3939 
Q 2509 4147 2053 4147 
L 1259 4147 
z
" transform="scale(0.015625)"/>
      <path id="DejaVuSans-31" d="M 794 531 
L 1825 531 
L 1825 4091 
L 703 3866 
L 703 4441 
L 1819 4666 
L 2450 4666 
L 2450 531 
L 3481 531 
L 3481 0 
L 794 0 
L 794 531 
z
" transform="scale(0.015625)"/>
     </defs>
     <use xlink:href="#DejaVuSans-52"/>
     <use xlink:href="#DejaVuSans-31" transform="translate(69.482422 0)"/>
    </g>
   </g>
   <g id="text_3">
    <!-- R2 -->
    <g transform="translate(82.002656 15.768438) scale(0.14 -0.14)">
     <defs>
      <path id="DejaVuSans-32" d="M 1228 531 
L 3431 531 
L 3431 0 
L 469 0 
L 469 531 
Q 828 903 1448 1529 
Q 2069 2156 2228 2338 
Q 2531 2678 2651 2914 
Q 2772 3150 2772 3378 
Q 2772 3750 2511 3984 
Q 2250 4219 1831 4219 
Q 1534 4219 1204 4116 
Q 875 4013 500 3803 
L 500 4441 
Q 881 4594 1212 4672 
Q 1544 4750 1819 4750 
Q 2544 4750 2975 4387 
Q 3406 4025 3406 3419 
Q 3406 3131 3298 2873 
Q 3191 2616 2906 2266 
Q 2828 2175 2409 1742 
Q 1991 1309 1228 531 
z
" transform="scale(0.015625)"/>
     </defs>
     <use xlink:href="#DejaVuSans-52"/>
     <use xlink:href="#DejaVuSans-32" transform="translate(69.482422 0)"/>
    </g>
   </g>
   <g id="text_4">
    <!-- series :  Req = R1 + R2 -->
    <g transform="translate(41.392656 132.343125) scale(0.14 -0.14)">
     <defs>
      <path id="DejaVuSans-73" d="M 2834 3397 
L 2834 2853 
Q 2591 2978 2328 3040 
Q 2066 3103 1784 3103 
Q 1356 3103 1142 2972 
Q 928 2841 928 2578 
Q 928 2378 1081 2264 
Q 1234 2150 1697 2047 
L 1894 2003 
Q 2506 1872 2764 1633 
Q 3022 1394 3022 966 
Q 3022 478 2636 193 
Q 2250 -91 1575 -91 
Q 1294 -91 989 -36 
Q 684 19 347 128 
L 347 722 
Q 666 556 975 473 
Q 1284 391 1588 391 
Q 1994 391 2212 530 
Q 2431 669 2431 922 
Q 2431 1156 2273 1281 
Q 2116 1406 1581 1522 
L 1381 1569 
Q 847 1681 609 1914 
Q 372 2147 372 2553 
Q 372 3047 722 3315 
Q 1072 3584 1716 3584 
Q 2034 3584 2315 3537 
Q 2597 3491 2834 3397 
z
" transform="scale(0.015625)"/>
      <path id="DejaVuSans-65" d="M 3597 1894 
L 3597 1613 
L 953 1613 
Q 991 1019 1311 708 
Q 1631 397 2203 397 
Q 2534 397 2845 478 
Q 3156 559 3463 722 
L 3463 178 
Q 3153 47 2828 -22 
Q 2503 -91 2169 -91 
Q 1331 -91 842 396 
Q 353 884 353 1716 
Q 353 2575 817 3079 
Q 1281 3584 2069 3584 
Q 2775 3584 3186 3129 
Q 3597 2675 3597 1894 
z
M 3022 2063 
Q 3016 2534 2758 2815 
Q 2500 3097 2075 3097 
Q 1594 3097 1305 2825 
Q 1016 2553 972 2059 
L 3022 2063 
z
" transform="scale(0.015625)"/>
      <path id="DejaVuSans-72" d="M 2631 2963 
Q 2534 3019 2420 3045 
Q 2306 3072 2169 3072 
Q 1681 3072 1420 2755 
Q 1159 2438 1159 1844 
L 1159 0 
L 581 0 
L 581 3500 
L 1159 3500 
L 1159 2956 
Q 1341 3275 1631 3429 
Q 1922 3584 2338 3584 
Q 2397 3584 2469 3576 
Q 2541 3569 2628 3553 
L 2631 2963 
z
" transform="scale(0.015625)"/>
      <path id="DejaVuSans-20" transform="scale(0.015625)"/>
      <path id="DejaVuSans-3a" d="M 750 794 
L 1409 794 
L 1409 0 
L 750 0 
L 750 794 
z
M 750 3309 
L 1409 3309 
L 1409 2516 
L 750 2516 
L 750 3309 
z
" transform="scale(0.015625)"/>
      <path id="DejaVuSans-71" d="M 947 1747 
Q 947 1113 1208 752 
Q 1469 391 1925 391 
Q 2381 391 2643 752 
Q 2906 1113 2906 1747 
Q 2906 2381 2643 2742 
Q 2381 3103 1925 3103 
Q 1469 3103 1208 2742 
Q 947 2381 947 1747 
z
M 2906 525 
Q 2725 213 2448 61 
Q 2172 -91 1784 -91 
Q 1150 -91 751 415 
Q 353 922 353 1747 
Q 353 2572 751 3078 
Q 1150 3584 1784 3584 
Q 2172 3584 2448 3432 
Q 2725 3281 2906 2969 
L 2906 3500 
L 3481 3500 
L 3481 -1331 
L 2906 -1331 
L 2906 525 
z
" transform="scale(0.015625)"/>
      <path id="DejaVuSans-3d" d="M 678 2906 
L 4684 2906 
L 4684 2381 
L 678 2381 
L 678 2906 
z
M 678 1631 
L 4684 1631 
L 4684 1100 
L 678 1100 
L 678 1631 
z
" transform="scale(0.015625)"/>
      <path id="DejaVuSans-2b" d="M 2944 4013 
L 2944 2272 
L 4684 2272 
L 4684 1741 
L 2944 1741 
L 2944 0 
L 2419 0 
L 2419 1741 
L 678 1741 
L 678 2272 
L 2419 2272 
L 2419 4013 
L 2944 4013 
z
" transform="scale(0.015625)"/>
     </defs>
     <use xlink:href="#DejaVuSans-73"/>
     <use xlink:href="#DejaVuSans-65" transform="translate(52.099609 0)"/>
     <use xlink:href="#DejaVuSans-72" transform="translate(113.623047 0)"/>
     <use xlink:href="#DejaVuSans-69" transform="translate(154.736328 0)"/>
     <use xlink:href="#DejaVuSans-65" transform="translate(182.519531 0)"/>
     <use xlink:href="#DejaVuSans-73" transform="translate(244.042969 0)"/>
     <use xlink:href="#DejaVuSans-20" transform="translate(296.142578 0)"/>
     <use xlink:href="#DejaVuSans-3a" transform="translate(327.929688 0)"/>
     <use xlink:href="#DejaVuSans-20" transform="translate(361.621094 0)"/>
     <use xlink:href="#DejaVuSans-20" transform="translate(393.408203 0)"/>
     <use xlink:href="#DejaVuSans-52" transform="translate(425.195312 0)"/>
     <use xlink:href="#DejaVuSans-65" transform="translate(490.177734 0)"/>
     <use xlink:href="#DejaVuSans-71" transform="translate(551.701172 0)"/>
     <use xlink:href="#DejaVuSans-20" transform="translate(615.177734 0)"/>
     <use xlink:href="#DejaVuSans-3d" transform="translate(646.964844 0)"/>
     <use xlink:href="#DejaVuSans-20" transform="translate(730.753906 0)"/>
     <use xlink:href="#DejaVuSans-52" transform="translate(762.541016 0)"/>
     <use xlink:href="#DejaVuSans-31" transform="translate(832.023438 0)"/>
     <use xlink:href="#DejaVuSans-20" transform="translate(895.646484 0)"/>
     <use xlink:href="#DejaVuSans-2b" transform="translate(927.433594 0)"/>
     <use xlink:href="#DejaVuSans-20" transform="translate(1011.222656 0)"/>
     <use xlink:href="#DejaVuSans-52" transform="translate(1043.009766 0)"/>
     <use xlink:href="#DejaVuSans-32" transform="translate(1112.492188 0)"/>
    </g>
   </g>
   <g id="text_5">
    <!-- Vin -->
    <g transform="translate(26.308438 196.717813) scale(0.14 -0.14)">
     <use xlink:href="#DejaVuSans-56"/>
     <use xlink:href="#DejaVuSans-69" transform="translate(66.158203 0)"/>
     <use xlink:href="#DejaVuSans-6e" transform="translate(93.941406 0)"/>
    </g>
   </g>
   <g id="text_6">
    <!-- R1 -->
    <g transform="translate(6.085 168.343125) scale(0.14 -0.14)">
     <use xlink:href="#DejaVuSans-52"/>
     <use xlink:href="#DejaVuSans-31" transform="translate(69.482422 0)"/>
    </g>
   </g>
   <g id="text_7">
    <!-- R2 -->
    <g transform="translate(46.002656 166.968437) scale(0.14 -0.14)">
     <use xlink:href="#DejaVuSans-52"/>
     <use xlink:href="#DejaVuSans-32" transform="translate(69.482422 0)"/>
    </g>
   </g>
   <g id="text_8">
    <!-- R3 -->
    <g transform="translate(6.085 204.343125) scale(0.14 -0.14)">
     <defs>
      <path id="DejaVuSans-33" d="M 2597 2516 
Q 3050 2419 3304 2112 
Q 3559 1806 3559 1356 
Q 3559 666 3084 287 
Q 2609 -91 1734 -91 
Q 1441 -91 1130 -33 
Q 819 25 488 141 
L 488 750 
Q 750 597 1062 519 
Q 1375 441 1716 441 
Q 2309 441 2620 675 
Q 2931 909 2931 1356 
Q 2931 1769 2642 2001 
Q 2353 2234 1838 2234 
L 1294 2234 
L 1294 2753 
L 1863 2753 
Q 2328 2753 2575 2939 
Q 2822 3125 2822 3475 
Q 2822 3834 2567 4026 
Q 2313 4219 1838 4219 
Q 1578 4219 1281 4162 
Q 984 4106 628 3988 
L 628 4550 
Q 988 4650 1302 4700 
Q 1616 4750 1894 4750 
Q 2613 4750 3031 4423 
Q 3450 4097 3450 3541 
Q 3450 3153 3228 2886 
Q 3006 2619 2597 2516 
z
" transform="scale(0.015625)"/>
     </defs>
     <use xlink:href="#DejaVuSans-52"/>
     <use xlink:href="#DejaVuSans-33" transform="translate(69.482422 0)"/>
    </g>
   </g>
   <g id="text_9">
    <!-- parallel :  1/Req = 1/R1 + 1/R2 + 1/R3 -->
    <g transform="translate(0 247.543125) scale(0.14 -0.14)">
     <defs>
      <path id="DejaVuSans-70" d="M 1159 525 
L 1159 -1331 
L 581 -1331 
L 581 3500 
L 1159 3500 
L 1159 2969 
Q 1341 3281 1617 3432 
Q 1894 3584 2278 3584 
Q 2916 3584 3314 3078 
Q 3713 2572 3713 1747 
Q 3713 922 3314 415 
Q 2916 -91 2278 -91 
Q 1894 -91 1617 61 
Q 1341 213 1159 525 
z
M 3116 1747 
Q 3116 2381 2855 2742 
Q 2594 3103 2138 3103 
Q 1681 3103 1420 2742 
Q 1159 2381 1159 1747 
Q 1159 1113 1420 752 
Q 1681 391 2138 391 
Q 2594 391 2855 752 
Q 3116 1113 3116 1747 
z
" transform="scale(0.015625)"/>
      <path id="DejaVuSans-61" d="M 2194 1759 
Q 1497 1759 1228 1600 
Q 959 1441 959 1056 
Q 959 750 1161 570 
Q 1363 391 1709 391 
Q 2188 391 2477 730 
Q 2766 1069 2766 1631 
L 2766 1759 
L 2194 1759 
z
M 3341 1997 
L 3341 0 
L 2766 0 
L 2766 531 
Q 2569 213 2275 61 
Q 1981 -91 1556 -91 
Q 1019 -91 701 211 
Q 384 513 384 1019 
Q 384 1609 779 1909 
Q 1175 2209 1959 2209 
L 2766 2209 
L 2766 2266 
Q 2766 2663 2505 2880 
Q 2244 3097 1772 3097 
Q 1472 3097 1187 3025 
Q 903 2953 641 2809 
L 641 3341 
Q 956 3463 1253 3523 
Q 1550 3584 1831 3584 
Q 2591 3584 2966 3190 
Q 3341 2797 3341 1997 
z
" transform="scale(0.015625)"/>
      <path id="DejaVuSans-6c" d="M 603 4863 
L 1178 4863 
L 1178 0 
L 603 0 
L 603 4863 
z
" transform="scale(0.015625)"/>
      <path id="DejaVuSans-2f" d="M 1625 4666 
L 2156 4666 
L 531 -594 
L 0 -594 
L 1625 4666 
z
" transform="scale(0.015625)"/>
     </defs>
     <use xlink:href="#DejaVuSans-70"/>
     <use xlink:href="#DejaVuSans-61" transform="translate(63.476562 0)"/>
     <use xlink:href="#DejaVuSans-72" transform="translate(124.755859 0)"/>
     <use xlink:href="#DejaVuSans-61" transform="translate(165.869141 0)"/>
     <use xlink:href="#DejaVuSans-6c" transform="translate(227.148438 0)"/>
     <use xlink:href="#DejaVuSans-6c" transform="translate(254.931641 0)"/>
     <use xlink:href="#DejaVuSans-65" transform="translate(282.714844 0)"/>
     <use xlink:href="#DejaVuSans-6c" transform="translate(344.238281 0)"/>
     <use xlink:href="#DejaVuSans-20" transform="translate(372.021484 0)"/>
     <use xlink:href="#DejaVuSans-3a" transform="translate(403.808594 0)"/>
     <use xlink:href="#DejaVuSans-20" transform="translate(437.5 0)"/>
     <use xlink:href="#DejaVuSans-20" transform="translate(469.287109 0)"/>
     <use xlink:href="#DejaVuSans-31" transform="translate(501.074219 0)"/>
     <use xlink:href="#DejaVuSans-2f" transform="translate(564.697266 0)"/>
     <use xlink:href="#DejaVuSans-52" transform="translate(598.388672 0)"/>
     <use xlink:href="#DejaVuSans-65" transform="translate(663.371094 0)"/>
     <use xlink:href="#DejaVuSans-71" transform="translate(724.894531 0)"/>
     <use xlink:href="#DejaVuSans-20" transform="translate(788.371094 0)"/>
     <use xlink:href="#DejaVuSans-3d" transform="translate(820.158203 0)"/>
     <use xlink:href="#DejaVuSans-20" transform="translate(903.947266 0)"/>
     <use xlink:href="#DejaVuSans-31" transform="translate(935.734375 0)"/>
     <use xlink:href="#DejaVuSans-2f" transform="translate(999.357422 0)"/>
     <use xlink:href="#DejaVuSans-52" transform="translate(1033.048828 0)"/>
     <use xlink:href="#DejaVuSans-31" transform="translate(1102.53125 0)"/>
     <use xlink:href="#DejaVuSans-20" transform="translate(1166.154297 0)"/>
     <use xlink:href="#DejaVuSans-2b" transform="translate(1197.941406 0)"/>
     <use xlink:href="#DejaVuSans-20" transform="translate(1281.730469 0)"/>
     <use xlink:href="#DejaVuSans-31" transform="translate(1313.517578 0)"/>
     <use xlink:href="#DejaVuSans-2f" transform="translate(1377.140625 0)"/>
     <use xlink:href="#DejaVuSans-52" transform="translate(1410.832031 0)"/>
     <use xlink:href="#DejaVuSans-32" transform="translate(1480.314453 0)"/>
     <use xlink:href="#DejaVuSans-20" transform="translate(1543.9375 0)"/>
     <use xlink:href="#DejaVuSans-2b" transform="translate(1575.724609 0)"/>
     <use xlink:href="#DejaVuSans-20" transform="translate(1659.513672 0)"/>
     <use xlink:href="#DejaVuSans-31" transform="translate(1691.300781 0)"/>
     <use xlink:href="#DejaVuSans-2f" transform="translate(1754.923828 0)"/>
     <use xlink:href="#DejaVuSans-52" transform="translate(1788.615234 0)"/>
     <use xlink:href="#DejaVuSans-33" transform="translate(1858.097656 0)"/>
    </g>
   </g>
  </g>
 </g>
 <defs>
  <clipPath id="pfe83fe27ee">
   <rect x="2.652313" y="0" width="250.872" height="255.36"/>
  </clipPath>
 </defs>
</svg>
