<?xml version="1.0" encoding="utf-8" standalone="no"?>
<!DOCTYPE svg PUBLIC "-//W3C//DTD SVG 1.1//EN"
  "http://www.w3.org/Graphics/SVG/1.1/DTD/svg11.dtd">
<svg xmlns:xlink="http://www.w3.org/1999/xlink" width="378pt" height="319.437813pt" viewBox="0 0 378 319.437813" xmlns="http://www.w3.org/2000/svg" version="1.1">
 <metadata>
  <rdf:RDF xmlns:dc="http://purl.org/dc/elements/1.1/" xmlns:cc="http://creativecommons.org/ns#" xmlns:rdf="http://www.w3.org/1999/02/22-rdf-syntax-ns#">
   <cc:Work>
    <dc:type rdf:resource="http://purl.org/dc/dcmitype/StillImage"/>
    <dc:date>2026-09-08T19:47:21.551479</dc:date>
    <dc:format>image/svg+xml</dc:format>
    <dc:creator>
     <cc:Agent>
      <dc:title>Matplotlib v3.10.6, https://matplotlib.org/</dc:title>
     </cc:Agent>
    </dc:creator>
   </cc:Work>
  </rdf:RDF>
 </metadata>
 <defs>
  <style type="text/css">*{stroke-linejoin: round; stroke-linecap: butt}</style>
 </defs>
 <g id="figure_1">
  <g id="patch_1">
   <path d="M 0 319.437813 
L 378 319.437813 
L 378 0 
L 0 0 
z
" style="fill: #ffffff"/>
  </g>
  <g id="axes_1">
   <g id="patch_2">
    <path d="M 70.2 183.897813 
C 73.875715 183.897813 77.401377 182.437435 80.0005 179.838312 
C 82.599623 177.23919 84.06 173.713527 84.06 170.037813 
C 84.06 166.362098 82.599623 162.836435 80.0005 160.237313 
C 77.401377 157.63819 73.875715 156.177813 70.2 156.177813 
C 66.524285 156.177813 62.998623 157.63819 60.3995 160.237313 
C 57.800377 162.836435 56.34 166.362098 56.34 170.037813 
C 56.34 173.713527 57.800377 177.23919 60.3995 179.838312 
C 62.998623 182.437435 66.524285 183.897813 70.2 183.897813 
L 70.2 183.897813 
z
" clip-path="url(#p1f61bcbaf1)" style="fill: none; stroke: #000000; stroke-width: 2.5; stroke-linejoin: miter"/>
   </g>
   <g id="patch_3">
    <path d="M 307.8 183.897813 
C 311.475715 183.897813 315.001377 182.437435 317.6005 179.838312 
C 320.199623 177.23919 321.66 173.713527 321.66 170.037813 
C 321.66 166.362098 320.199623 162.836435 317.6005 160.237313 
C 315.001377 157.63819 311.475715 156.177813 307.8 156.177813 
C 304.124285 156.177813 300.598623 157.63819 297.9995 160.237313 
C 295.400377 162.836435 293.94 166.362098 293.94 170.037813 
C 293.94 173.713527 295.400377 177.23919 297.9995 179.838312 
C 300.598623 182.437435 304.124285 183.897813 307.8 183.897813 
L 307.8 183.897813 
z
" clip-path="url(#p1f61bcbaf1)" style="fill: none; stroke: #000000; stroke-width: 2.5; stroke-linejoin: miter"/>
   </g>
   <g id="line2d_1">
    <path d="M 70.2 90.837813 
L 129.6 90.837813 
" clip-path="url(#p1f61bcbaf1)" style="fill: none; stroke: #000000; stroke-width: 2.5; stroke-linecap: square"/>
   </g>
   <g id="line2d_2">
    <path d="M 169.2 90.837813 
L 189 90.837813 
" clip-path="url(#p1f61bcbaf1)" style="fill: none; stroke: #000000; stroke-width: 2.5; stroke-linecap: square"/>
   </g>
   <g id="line2d_3">
    <path d="M 189 90.837813 
L 248.4 90.837813 
" clip-path="url(#p1f61bcbaf1)" style="fill: none; stroke: #000000; stroke-width: 2.5; stroke-linecap: square"/>
   </g>
   <g id="line2d_4">
    <path d="M 288 90.837813 
L 307.8 90.837813 
" clip-path="url(#p1f61bcbaf1)" style="fill: none; stroke: #000000; stroke-width: 2.5; stroke-linecap: square"/>
   </g>
   <g id="line2d_5">
    <path d="M 70.2 249.237813 
L 307.8 249.237813 
" clip-path="url(#p1f61bcbaf1)" style="fill: none; stroke: #000000; stroke-width: 2.5; stroke-linecap: square"/>
   </g>
   <g id="line2d_6">
    <path d="M 70.2 249.237813 
L 70.2 183.897813 
" clip-path="url(#p1f61bcbaf1)" style="fill: none; stroke: #000000; stroke-width: 2.5; stroke-linecap: square"/>
   </g>
   <g id="line2d_7">
    <path d="M 70.2 156.177813 
L 70.2 90.837813 
" clip-path="url(#p1f61bcbaf1)" style="fill: none; stroke: #000000; stroke-width: 2.5; stroke-linecap: square"/>
   </g>
   <g id="line2d_8">
    <path d="M 129.6 90.837813 
L 133.2 83.709813 
L 136.8 90.837813 
L 140.4 97.965813 
L 144 90.837813 
L 147.6 83.709813 
L 151.2 90.837813 
L 154.8 97.965813 
L 158.4 90.837813 
L 162 83.709813 
L 165.6 90.837813 
L 169.2 97.965813 
" clip-path="url(#p1f61bcbaf1)" style="fill: none; stroke: #000000; stroke-width: 2.5; stroke-linecap: square"/>
   </g>
   <g id="line2d_9">
    <path d="M 189 90.837813 
L 196.128 99.174655 
L 189 107.511497 
L 181.872 115.848339 
L 189 124.185181 
L 196.128 132.522023 
L 189 140.858865 
L 181.872 149.195707 
L 189 157.532549 
L 196.128 165.869391 
L 189 174.206234 
L 181.872 182.543076 
L 189 190.879918 
L 196.128 199.21676 
L 189 207.553602 
L 181.872 215.890444 
L 189 224.227286 
L 196.128 232.564128 
L 189 240.90097 
L 181.872 249.237813 
" clip-path="url(#p1f61bcbaf1)" style="fill: none; stroke: #000000; stroke-width: 2.5; stroke-linecap: square"/>
   </g>
   <g id="line2d_10">
    <path d="M 248.4 90.837813 
L 252 83.709813 
L 255.6 90.837813 
L 259.2 97.965813 
L 262.8 90.837813 
L 266.4 83.709813 
L 270 90.837813 
L 273.6 97.965813 
L 277.2 90.837813 
L 280.8 83.709813 
L 284.4 90.837813 
L 288 97.965813 
" clip-path="url(#p1f61bcbaf1)" style="fill: none; stroke: #000000; stroke-width: 2.5; stroke-linecap: square"/>
   </g>
   <g id="line2d_11">
    <path d="M 307.8 249.237813 
L 307.8 183.897813 
" clip-path="url(#p1f61bcbaf1)" style="fill: none; stroke: #000000; stroke-width: 2.5; stroke-linecap: square"/>
   </g>
   <g id="line2d_12">
    <path d="M 307.8 156.177813 
L 307.8 90.837813 
" clip-path="url(#p1f61bcbaf1)" style="fill: none; stroke: #000000; stroke-width: 2.5; stroke-linecap: square"/>
   </g>
   <g id="line2d_13">
    <defs>
     <path id="m9848296540" d="M 0 3 
C 0.795609 3 1.55874 2.683901 2.12132 2.12132 
C 2.683901 1.55874 3 0.795609 3 0 
C 3 -0.795609 2.683901 -1.55874 2.12132 -2.12132 
C 1.55874 -2.683901 0.795609 -3 0 -3 
C -0.795609 -3 -1.55874 -2.683901 -2.12132 -2.12132 
C -2.683901 -1.55874 -3 -0.795609 -3 0 
C -3 0.795609 -2.683901 1.55874 -2.12132 2.12132 
C -1.55874 2.683901 -0.795609 3 0 3 
z
" style="stroke: #000000"/>
    </defs>
    <g clip-path="url(#p1f61bcbaf1)">
     <use xlink:href="#m9848296540" x="189" y="90.837813" style="stroke: #000000"/>
    </g>
   </g>
   <g id="line2d_14">
    <g clip-path="url(#p1f61bcbaf1)">
     <use xlink:href="#m9848296540" x="189" y="249.237813" style="stroke: #000000"/>
    </g>
   </g>
   <g id="line2d_15">
    <path d="M 163.648192 159.505472 
L 163.01294 157.636803 
L 162.275217 155.806165 
L 161.437286 154.019173 
L 160.501717 152.281307 
L 159.471378 150.597896 
L 158.349431 148.974103 
L 157.139314 147.414909 
L 155.84474 145.925094 
L 154.469679 144.509228 
L 153.018348 143.171652 
L 151.495198 141.91647 
L 149.9049 140.74753 
L 148.25233 139.668417 
L 146.542558 138.682441 
L 144.780827 137.792625 
L 142.972539 137.001699 
L 141.12324 136.312087 
L 139.238602 135.725906 
L 137.324404 135.244951 
L 135.386518 134.8707 
L 133.430885 134.604298 
L 131.463503 134.446564 
L 129.490407 134.397981 
L 127.517647 134.458698 
L 125.551272 134.628528 
L 123.597315 134.906952 
L 121.661766 135.293114 
L 119.750563 135.785832 
L 117.869565 136.383593 
L 116.024543 137.084564 
L 114.221153 137.886597 
L 112.464927 138.78723 
L 110.761251 139.783703 
L 109.11535 140.872958 
L 107.532271 142.051657 
L 106.016868 143.316183 
L 104.573791 144.662658 
L 103.207463 146.086954 
L 101.922076 147.584703 
L 100.721572 149.15131 
L 99.609632 150.781972 
L 98.589665 152.471687 
L 97.664802 154.215275 
L 96.837876 156.007386 
L 96.111426 157.842527 
L 95.487678 159.715067 
L 94.968545 161.619265 
L 94.55562 163.549282 
L 94.250169 165.499197 
L 94.053128 167.463031 
L 93.965102 169.434761 
L 93.986361 171.408341 
L 94.11684 173.377718 
L 94.356138 175.336852 
L 94.703522 177.279735 
L 95.157926 179.200408 
L 95.717957 181.092982 
L 96.381897 182.951652 
L 97.14771 184.770718 
L 98.013048 186.544601 
L 98.975256 188.267861 
L 100.031384 189.935213 
L 101.178193 191.541544 
L 102.412165 193.081927 
L 103.729517 194.551639 
L 105.126208 195.946173 
L 106.597956 197.26125 
L 108.140246 198.492839 
L 109.748348 199.637163 
L 111.417332 200.690711 
L 113.142078 201.650253 
L 114.917297 202.512846 
L 116.737544 203.275845 
L 118.597239 203.93691 
L 120.490676 204.494014 
L 122.41205 204.945447 
L 124.355468 205.289826 
L 126.31497 205.526095 
L 128.284546 205.653528 
L 130.258156 205.671735 
L 132.229748 205.58066 
L 134.193275 205.380583 
L 136.142716 205.072117 
L 138.072091 204.656207 
L 139.975484 204.134131 
L 141.847058 203.507488 
L 143.681073 202.7782 
L 145.471903 201.948505 
L 147.214058 201.020946 
L 148.902195 199.998368 
L 150.531135 198.883907 
L 152.095884 197.680982 
L 153.591643 196.39328 
L 155.013824 195.024752 
L 156.358067 193.579594 
L 157.620248 192.062238 
L 158.796497 190.477338 
L 159.883206 188.829754 
L 160.877043 187.124539 
" clip-path="url(#p1f61bcbaf1)" style="fill: none; stroke: #0000ff; stroke-opacity: 0.6; stroke-width: 2; stroke-linecap: square"/>
   </g>
   <g id="line2d_16">
    <path d="M 282.448192 159.505472 
L 281.81294 157.636803 
L 281.075217 155.806165 
L 280.237286 154.019173 
L 279.301717 152.281307 
L 278.271378 150.597896 
L 277.149431 148.974103 
L 275.939314 147.414909 
L 274.64474 145.925094 
L 273.269679 144.509228 
L 271.818348 143.171652 
L 270.295198 141.91647 
L 268.7049 140.74753 
L 267.05233 139.668417 
L 265.342558 138.682441 
L 263.580827 137.792625 
L 261.772539 137.001699 
L 259.92324 136.312087 
L 258.038602 135.725906 
L 256.124404 135.244951 
L 254.186518 134.8707 
L 252.230885 134.604298 
L 250.263503 134.446564 
L 248.290407 134.397981 
L 246.317647 134.458698 
L 244.351272 134.628528 
L 242.397315 134.906952 
L 240.461766 135.293114 
L 238.550563 135.785832 
L 236.669565 136.383593 
L 234.824543 137.084564 
L 233.021153 137.886597 
L 231.264927 138.78723 
L 229.561251 139.783703 
L 227.91535 140.872958 
L 226.332271 142.051657 
L 224.816868 143.316183 
L 223.373791 144.662658 
L 222.007463 146.086954 
L 220.722076 147.584703 
L 219.521572 149.15131 
L 218.409632 150.781972 
L 217.389665 152.471687 
L 216.464802 154.215275 
L 215.637876 156.007386 
L 214.911426 157.842527 
L 214.287678 159.715067 
L 213.768545 161.619265 
L 213.35562 163.549282 
L 213.050169 165.499197 
L 212.853128 167.463031 
L 212.765102 169.434761 
L 212.786361 171.408341 
L 212.91684 173.377718 
L 213.156138 175.336852 
L 213.503522 177.279735 
L 213.957926 179.200408 
L 214.517957 181.092982 
L 215.181897 182.951652 
L 215.94771 184.770718 
L 216.813048 186.544601 
L 217.775256 188.267861 
L 218.831384 189.935213 
L 219.978193 191.541544 
L 221.212165 193.081927 
L 222.529517 194.551639 
L 223.926208 195.946173 
L 225.397956 197.26125 
L 226.940246 198.492839 
L 228.548348 199.637163 
L 230.217332 200.690711 
L 231.942078 201.650253 
L 233.717297 202.512846 
L 235.537544 203.275845 
L 237.397239 203.93691 
L 239.290676 204.494014 
L 241.21205 204.945447 
L 243.155468 205.289826 
L 245.11497 205.526095 
L 247.084546 205.653528 
L 249.058156 205.671735 
L 251.029748 205.58066 
L 252.993275 205.380583 
L 254.942716 205.072117 
L 256.872091 204.656207 
L 258.775484 204.134131 
L 260.647058 203.507488 
L 262.481073 202.7782 
L 264.271903 201.948505 
L 266.014058 201.020946 
L 267.702195 199.998368 
L 269.331135 198.883907 
L 270.895884 197.680982 
L 272.391643 196.39328 
L 273.813824 195.024752 
L 275.158067 193.579594 
L 276.420248 192.062238 
L 277.596497 190.477338 
L 278.683206 188.829754 
L 279.677043 187.124539 
" clip-path="url(#p1f61bcbaf1)" style="fill: none; stroke: #ff0000; stroke-opacity: 0.6; stroke-width: 2; stroke-linecap: square"/>
   </g>
   <g id="text_1">
    <!-- + -->
    <g transform="translate(64.334219 161.18625) scale(0.14 -0.14)">
     <defs>
      <path id="DejaVuSans-Bold-2b" d="M 3053 4013 
L 3053 2375 
L 4684 2375 
L 4684 1638 
L 3053 1638 
L 3053 0 
L 2309 0 
L 2309 1638 
L 678 1638 
L 678 2375 
L 2309 2375 
L 2309 4013 
L 3053 4013 
z
" transform="scale(0.015625)"/>
     </defs>
     <use xlink:href="#DejaVuSans-Bold-2b"/>
    </g>
   </g>
   <g id="text_2">
    <!-- − -->
    <g transform="translate(64.334219 186.615625) scale(0.14 -0.14)">
     <defs>
      <path id="DejaVuSans-Bold-2212" d="M 678 2375 
L 4684 2375 
L 4684 1638 
L 678 1638 
L 678 2375 
z
" transform="scale(0.015625)"/>
     </defs>
     <use xlink:href="#DejaVuSans-Bold-2212"/>
    </g>
   </g>
   <g id="text_3">
    <!-- V1 -->
    <g style="fill: #0000ff" transform="translate(31.916562 166.914328) scale(0.11 -0.11)">
     <defs>
      <path id="DejaVuSans-56" d="M 1831 0 
L 50 4666 
L 709 4666 
L 2188 738 
L 3669 4666 
L 4325 4666 
L 2547 0 
L 1831 0 
z
" transform="scale(0.015625)"/>
      <path id="DejaVuSans-31" d="M 794 531 
L 1825 531 
L 1825 4091 
L 703 3866 
L 703 4441 
L 1819 4666 
L 2450 4666 
L 2450 531 
L 3481 531 
L 3481 0 
L 794 0 
L 794 531 
z
" transform="scale(0.015625)"/>
     </defs>
     <use xlink:href="#DejaVuSans-56"/>
     <use xlink:href="#DejaVuSans-31" transform="translate(68.408203 0)"/>
    </g>
    <!-- =10V -->
    <g style="fill: #0000ff" transform="translate(15.700156 179.231922) scale(0.11 -0.11)">
     <defs>
      <path id="DejaVuSans-3d" d="M 678 2906 
L 4684 2906 
L 4684 2381 
L 678 2381 
L 678 2906 
z
M 678 1631 
L 4684 1631 
L 4684 1100 
L 678 1100 
L 678 1631 
z
" transform="scale(0.015625)"/>
      <path id="DejaVuSans-30" d="M 2034 4250 
Q 1547 4250 1301 3770 
Q 1056 3291 1056 2328 
Q 1056 1369 1301 889 
Q 1547 409 2034 409 
Q 2525 409 2770 889 
Q 3016 1369 3016 2328 
Q 3016 3291 2770 3770 
Q 2525 4250 2034 4250 
z
M 2034 4750 
Q 2819 4750 3233 4129 
Q 3647 3509 3647 2328 
Q 3647 1150 3233 529 
Q 2819 -91 2034 -91 
Q 1250 -91 836 529 
Q 422 1150 422 2328 
Q 422 3509 836 4129 
Q 1250 4750 2034 4750 
z
" transform="scale(0.015625)"/>
     </defs>
     <use xlink:href="#DejaVuSans-3d"/>
     <use xlink:href="#DejaVuSans-31" transform="translate(83.789062 0)"/>
     <use xlink:href="#DejaVuSans-30" transform="translate(147.412109 0)"/>
     <use xlink:href="#DejaVuSans-56" transform="translate(211.035156 0)"/>
    </g>
   </g>
   <g id="text_4">
    <!-- R1=2Ω -->
    <g style="fill: #0000ff" transform="translate(129.767578 70.730156) scale(0.11 -0.11)">
     <defs>
      <path id="DejaVuSans-52" d="M 2841 2188 
Q 3044 2119 3236 1894 
Q 3428 1669 3622 1275 
L 4263 0 
L 3584 0 
L 2988 1197 
Q 2756 1666 2539 1819 
Q 2322 1972 1947 1972 
L 1259 1972 
L 1259 0 
L 628 0 
L 628 4666 
L 2053 4666 
Q 2853 4666 3247 4331 
Q 3641 3997 3641 3322 
Q 3641 2881 3436 2590 
Q 3231 2300 2841 2188 
z
M 1259 4147 
L 1259 2491 
L 2053 2491 
Q 2509 2491 2742 2702 
Q 2975 2913 2975 3322 
Q 2975 3731 2742 3939 
Q 2509 4147 2053 4147 
L 1259 4147 
z
" transform="scale(0.015625)"/>
      <path id="DejaVuSans-32" d="M 1228 531 
L 3431 531 
L 3431 0 
L 469 0 
L 469 531 
Q 828 903 1448 1529 
Q 2069 2156 2228 2338 
Q 2531 2678 2651 2914 
Q 2772 3150 2772 3378 
Q 2772 3750 2511 3984 
Q 2250 4219 1831 4219 
Q 1534 4219 1204 4116 
Q 875 4013 500 3803 
L 500 4441 
Q 881 4594 1212 4672 
Q 1544 4750 1819 4750 
Q 2544 4750 2975 4387 
Q 3406 4025 3406 3419 
Q 3406 3131 3298 2873 
Q 3191 2616 2906 2266 
Q 2828 2175 2409 1742 
Q 1991 1309 1228 531 
z
" transform="scale(0.015625)"/>
      <path id="DejaVuSans-3a9" d="M 4647 556 
L 4647 0 
L 2772 0 
L 2772 556 
Q 3325 859 3634 1378 
Q 3944 1897 3944 2528 
Q 3944 3278 3531 3731 
Q 3119 4184 2444 4184 
Q 1769 4184 1355 3729 
Q 941 3275 941 2528 
Q 941 1897 1250 1378 
Q 1563 859 2119 556 
L 2119 0 
L 244 0 
L 244 556 
L 1241 556 
Q 747 991 519 1456 
Q 294 1922 294 2497 
Q 294 3491 894 4106 
Q 1491 4722 2444 4722 
Q 3391 4722 3994 4106 
Q 4594 3494 4594 2528 
Q 4594 1922 4372 1459 
Q 4150 997 3647 556 
L 4647 556 
z
" transform="scale(0.015625)"/>
     </defs>
     <use xlink:href="#DejaVuSans-52"/>
     <use xlink:href="#DejaVuSans-31" transform="translate(69.482422 0)"/>
     <use xlink:href="#DejaVuSans-3d" transform="translate(133.105469 0)"/>
     <use xlink:href="#DejaVuSans-32" transform="translate(216.894531 0)"/>
     <use xlink:href="#DejaVuSans-3a9" transform="translate(280.517578 0)"/>
    </g>
   </g>
   <g id="text_5">
    <!-- R2=4Ω -->
    <g style="fill: #0000ff" transform="translate(210.78 173.073125) scale(0.11 -0.11)">
     <defs>
      <path id="DejaVuSans-34" d="M 2419 4116 
L 825 1625 
L 2419 1625 
L 2419 4116 
z
M 2253 4666 
L 3047 4666 
L 3047 1625 
L 3713 1625 
L 3713 1100 
L 3047 1100 
L 3047 0 
L 2419 0 
L 2419 1100 
L 313 1100 
L 313 1709 
L 2253 4666 
z
" transform="scale(0.015625)"/>
     </defs>
     <use xlink:href="#DejaVuSans-52"/>
     <use xlink:href="#DejaVuSans-32" transform="translate(69.482422 0)"/>
     <use xlink:href="#DejaVuSans-3d" transform="translate(133.105469 0)"/>
     <use xlink:href="#DejaVuSans-34" transform="translate(216.894531 0)"/>
     <use xlink:href="#DejaVuSans-3a9" transform="translate(280.517578 0)"/>
    </g>
   </g>
   <g id="text_6">
    <!-- R3=6Ω -->
    <g style="fill: #0000ff" transform="translate(248.567578 70.730156) scale(0.11 -0.11)">
     <defs>
      <path id="DejaVuSans-33" d="M 2597 2516 
Q 3050 2419 3304 2112 
Q 3559 1806 3559 1356 
Q 3559 666 3084 287 
Q 2609 -91 1734 -91 
Q 1441 -91 1130 -33 
Q 819 25 488 141 
L 488 750 
Q 750 597 1062 519 
Q 1375 441 1716 441 
Q 2309 441 2620 675 
Q 2931 909 2931 1356 
Q 2931 1769 2642 2001 
Q 2353 2234 1838 2234 
L 1294 2234 
L 1294 2753 
L 1863 2753 
Q 2328 2753 2575 2939 
Q 2822 3125 2822 3475 
Q 2822 3834 2567 4026 
Q 2313 4219 1838 4219 
Q 1578 4219 1281 4162 
Q 984 4106 628 3988 
L 628 4550 
Q 988 4650 1302 4700 
Q 1616 4750 1894 4750 
Q 2613 4750 3031 4423 
Q 3450 4097 3450 3541 
Q 3450 3153 3228 2886 
Q 3006 2619 2597 2516 
z
" transform="scale(0.015625)"/>
      <path id="DejaVuSans-36" d="M 2113 2584 
Q 1688 2584 1439 2293 
Q 1191 2003 1191 1497 
Q 1191 994 1439 701 
Q 1688 409 2113 409 
Q 2538 409 2786 701 
Q 3034 994 3034 1497 
Q 3034 2003 2786 2293 
Q 2538 2584 2113 2584 
z
M 3366 4563 
L 3366 3988 
Q 3128 4100 2886 4159 
Q 2644 4219 2406 4219 
Q 1781 4219 1451 3797 
Q 1122 3375 1075 2522 
Q 1259 2794 1537 2939 
Q 1816 3084 2150 3084 
Q 2853 3084 3261 2657 
Q 3669 2231 3669 1497 
Q 3669 778 3244 343 
Q 2819 -91 2113 -91 
Q 1303 -91 875 529 
Q 447 1150 447 2328 
Q 447 3434 972 4092 
Q 1497 4750 2381 4750 
Q 2619 4750 2861 4703 
Q 3103 4656 3366 4563 
z
" transform="scale(0.015625)"/>
     </defs>
     <use xlink:href="#DejaVuSans-52"/>
     <use xlink:href="#DejaVuSans-33" transform="translate(69.482422 0)"/>
     <use xlink:href="#DejaVuSans-3d" transform="translate(133.105469 0)"/>
     <use xlink:href="#DejaVuSans-36" transform="translate(216.894531 0)"/>
     <use xlink:href="#DejaVuSans-3a9" transform="translate(280.517578 0)"/>
    </g>
   </g>
   <g id="text_7">
    <!-- + -->
    <g transform="translate(301.934219 161.18625) scale(0.14 -0.14)">
     <use xlink:href="#DejaVuSans-Bold-2b"/>
    </g>
   </g>
   <g id="text_8">
    <!-- − -->
    <g transform="translate(301.934219 186.615625) scale(0.14 -0.14)">
     <use xlink:href="#DejaVuSans-Bold-2212"/>
    </g>
   </g>
   <g id="text_9">
    <!-- V2 -->
    <g style="fill: #0000ff" transform="translate(331.56 166.914328) scale(0.11 -0.11)">
     <use xlink:href="#DejaVuSans-56"/>
     <use xlink:href="#DejaVuSans-32" transform="translate(68.408203 0)"/>
    </g>
    <!-- =5V -->
    <g style="fill: #0000ff" transform="translate(331.56 179.231922) scale(0.11 -0.11)">
     <defs>
      <path id="DejaVuSans-35" d="M 691 4666 
L 3169 4666 
L 3169 4134 
L 1269 4134 
L 1269 2991 
Q 1406 3038 1543 3061 
Q 1681 3084 1819 3084 
Q 2600 3084 3056 2656 
Q 3513 2228 3513 1497 
Q 3513 744 3044 326 
Q 2575 -91 1722 -91 
Q 1428 -91 1123 -41 
Q 819 9 494 109 
L 494 744 
Q 775 591 1075 516 
Q 1375 441 1709 441 
Q 2250 441 2565 725 
Q 2881 1009 2881 1497 
Q 2881 1984 2565 2268 
Q 2250 2553 1709 2553 
Q 1456 2553 1204 2497 
Q 953 2441 691 2322 
L 691 4666 
z
" transform="scale(0.015625)"/>
     </defs>
     <use xlink:href="#DejaVuSans-3d"/>
     <use xlink:href="#DejaVuSans-35" transform="translate(83.789062 0)"/>
     <use xlink:href="#DejaVuSans-56" transform="translate(147.412109 0)"/>
    </g>
   </g>
   <g id="patch_4">
    <path d="M 157.503256 191.943767 
Q 158.616046 190.354222 158.446451 190.596476 
" style="fill: none; stroke: #0000ff; stroke-width: 2; stroke-linecap: round"/>
    <path d="M 153.727559 193.152265 
L 158.446451 190.596476 
L 157.659747 195.905063 
" style="fill: none; stroke: #0000ff; stroke-width: 2; stroke-linecap: round"/>
   </g>
   <g id="text_10">
    <!-- $I_1$ -->
    <g style="fill: #0000ff" transform="translate(124.21 221.420938) scale(0.14 -0.14)">
     <defs>
      <path id="DejaVuSans-Oblique-49" d="M 1081 4666 
L 1716 4666 
L 806 0 
L 172 0 
L 1081 4666 
z
" transform="scale(0.015625)"/>
     </defs>
     <use xlink:href="#DejaVuSans-Oblique-49" transform="translate(0 0.09375)"/>
     <use xlink:href="#DejaVuSans-31" transform="translate(29.492188 -16.3125) scale(0.7)"/>
    </g>
   </g>
   <g id="patch_5">
    <path d="M 276.303256 191.943767 
Q 277.416046 190.354222 277.246451 190.596476 
" style="fill: none; stroke: #ff0000; stroke-width: 2; stroke-linecap: round"/>
    <path d="M 272.527559 193.152265 
L 277.246451 190.596476 
L 276.459747 195.905063 
" style="fill: none; stroke: #ff0000; stroke-width: 2; stroke-linecap: round"/>
   </g>
   <g id="text_11">
    <!-- $I_2$ -->
    <g style="fill: #ff0000" transform="translate(243.01 221.420938) scale(0.14 -0.14)">
     <use xlink:href="#DejaVuSans-Oblique-49" transform="translate(0 0.09375)"/>
     <use xlink:href="#DejaVuSans-32" transform="translate(29.492188 -16.3125) scale(0.7)"/>
    </g>
   </g>
   <g id="text_12">
    <!-- Two-Mesh Circuit for Mesh Current Analysis -->
    <g transform="translate(37.953125 21.437813) scale(0.14 -0.14)">
     <defs>
      <path id="DejaVuSans-54" d="M -19 4666 
L 3928 4666 
L 3928 4134 
L 2272 4134 
L 2272 0 
L 1638 0 
L 1638 4134 
L -19 4134 
L -19 4666 
z
" transform="scale(0.015625)"/>
      <path id="DejaVuSans-77" d="M 269 3500 
L 844 3500 
L 1563 769 
L 2278 3500 
L 2956 3500 
L 3675 769 
L 4391 3500 
L 4966 3500 
L 4050 0 
L 3372 0 
L 2619 2869 
L 1863 0 
L 1184 0 
L 269 3500 
z
" transform="scale(0.015625)"/>
      <path id="DejaVuSans-6f" d="M 1959 3097 
Q 1497 3097 1228 2736 
Q 959 2375 959 1747 
Q 959 1119 1226 758 
Q 1494 397 1959 397 
Q 2419 397 2687 759 
Q 2956 1122 2956 1747 
Q 2956 2369 2687 2733 
Q 2419 3097 1959 3097 
z
M 1959 3584 
Q 2709 3584 3137 3096 
Q 3566 2609 3566 1747 
Q 3566 888 3137 398 
Q 2709 -91 1959 -91 
Q 1206 -91 779 398 
Q 353 888 353 1747 
Q 353 2609 779 3096 
Q 1206 3584 1959 3584 
z
" transform="scale(0.015625)"/>
      <path id="DejaVuSans-2d" d="M 313 2009 
L 1997 2009 
L 1997 1497 
L 313 1497 
L 313 2009 
z
" transform="scale(0.015625)"/>
      <path id="DejaVuSans-4d" d="M 628 4666 
L 1569 4666 
L 2759 1491 
L 3956 4666 
L 4897 4666 
L 4897 0 
L 4281 0 
L 4281 4097 
L 3078 897 
L 2444 897 
L 1241 4097 
L 1241 0 
L 628 0 
L 628 4666 
z
" transform="scale(0.015625)"/>
      <path id="DejaVuSans-65" d="M 3597 1894 
L 3597 1613 
L 953 1613 
Q 991 1019 1311 708 
Q 1631 397 2203 397 
Q 2534 397 2845 478 
Q 3156 559 3463 722 
L 3463 178 
Q 3153 47 2828 -22 
Q 2503 -91 2169 -91 
Q 1331 -91 842 396 
Q 353 884 353 1716 
Q 353 2575 817 3079 
Q 1281 3584 2069 3584 
Q 2775 3584 3186 3129 
Q 3597 2675 3597 1894 
z
M 3022 2063 
Q 3016 2534 2758 2815 
Q 2500 3097 2075 3097 
Q 1594 3097 1305 2825 
Q 1016 2553 972 2059 
L 3022 2063 
z
" transform="scale(0.015625)"/>
      <path id="DejaVuSans-73" d="M 2834 3397 
L 2834 2853 
Q 2591 2978 2328 3040 
Q 2066 3103 1784 3103 
Q 1356 3103 1142 2972 
Q 928 2841 928 2578 
Q 928 2378 1081 2264 
Q 1234 2150 1697 2047 
L 1894 2003 
Q 2506 1872 2764 1633 
Q 3022 1394 3022 966 
Q 3022 478 2636 193 
Q 2250 -91 1575 -91 
Q 1294 -91 989 -36 
Q 684 19 347 128 
L 347 722 
Q 666 556 975 473 
Q 1284 391 1588 391 
Q 1994 391 2212 530 
Q 2431 669 2431 922 
Q 2431 1156 2273 1281 
Q 2116 1406 1581 1522 
L 1381 1569 
Q 847 1681 609 1914 
Q 372 2147 372 2553 
Q 372 3047 722 3315 
Q 1072 3584 1716 3584 
Q 2034 3584 2315 3537 
Q 2597 3491 2834 3397 
z
" transform="scale(0.015625)"/>
      <path id="DejaVuSans-68" d="M 3513 2113 
L 3513 0 
L 2938 0 
L 2938 2094 
Q 2938 2591 2744 2837 
Q 2550 3084 2163 3084 
Q 1697 3084 1428 2787 
Q 1159 2491 1159 1978 
L 1159 0 
L 581 0 
L 581 4863 
L 1159 4863 
L 1159 2956 
Q 1366 3272 1645 3428 
Q 1925 3584 2291 3584 
Q 2894 3584 3203 3211 
Q 3513 2838 3513 2113 
z
" transform="scale(0.015625)"/>
      <path id="DejaVuSans-20" transform="scale(0.015625)"/>
      <path id="DejaVuSans-43" d="M 4122 4306 
L 4122 3641 
Q 3803 3938 3442 4084 
Q 3081 4231 2675 4231 
Q 1875 4231 1450 3742 
Q 1025 3253 1025 2328 
Q 1025 1406 1450 917 
Q 1875 428 2675 428 
Q 3081 428 3442 575 
Q 3803 722 4122 1019 
L 4122 359 
Q 3791 134 3420 21 
Q 3050 -91 2638 -91 
Q 1578 -91 968 557 
Q 359 1206 359 2328 
Q 359 3453 968 4101 
Q 1578 4750 2638 4750 
Q 3056 4750 3426 4639 
Q 3797 4528 4122 4306 
z
" transform="scale(0.015625)"/>
      <path id="DejaVuSans-69" d="M 603 3500 
L 1178 3500 
L 1178 0 
L 603 0 
L 603 3500 
z
M 603 4863 
L 1178 4863 
L 1178 4134 
L 603 4134 
L 603 4863 
z
" transform="scale(0.015625)"/>
      <path id="DejaVuSans-72" d="M 2631 2963 
Q 2534 3019 2420 3045 
Q 2306 3072 2169 3072 
Q 1681 3072 1420 2755 
Q 1159 2438 1159 1844 
L 1159 0 
L 581 0 
L 581 3500 
L 1159 3500 
L 1159 2956 
Q 1341 3275 1631 3429 
Q 1922 3584 2338 3584 
Q 2397 3584 2469 3576 
Q 2541 3569 2628 3553 
L 2631 2963 
z
" transform="scale(0.015625)"/>
      <path id="DejaVuSans-63" d="M 3122 3366 
L 3122 2828 
Q 2878 2963 2633 3030 
Q 2388 3097 2138 3097 
Q 1578 3097 1268 2742 
Q 959 2388 959 1747 
Q 959 1106 1268 751 
Q 1578 397 2138 397 
Q 2388 397 2633 464 
Q 2878 531 3122 666 
L 3122 134 
Q 2881 22 2623 -34 
Q 2366 -91 2075 -91 
Q 1284 -91 818 406 
Q 353 903 353 1747 
Q 353 2603 823 3093 
Q 1294 3584 2113 3584 
Q 2378 3584 2631 3529 
Q 2884 3475 3122 3366 
z
" transform="scale(0.015625)"/>
      <path id="DejaVuSans-75" d="M 544 1381 
L 544 3500 
L 1119 3500 
L 1119 1403 
Q 1119 906 1312 657 
Q 1506 409 1894 409 
Q 2359 409 2629 706 
Q 2900 1003 2900 1516 
L 2900 3500 
L 3475 3500 
L 3475 0 
L 2900 0 
L 2900 538 
Q 2691 219 2414 64 
Q 2138 -91 1772 -91 
Q 1169 -91 856 284 
Q 544 659 544 1381 
z
M 1991 3584 
L 1991 3584 
z
" transform="scale(0.015625)"/>
      <path id="DejaVuSans-74" d="M 1172 4494 
L 1172 3500 
L 2356 3500 
L 2356 3053 
L 1172 3053 
L 1172 1153 
Q 1172 725 1289 603 
Q 1406 481 1766 481 
L 2356 481 
L 2356 0 
L 1766 0 
Q 1100 0 847 248 
Q 594 497 594 1153 
L 594 3053 
L 172 3053 
L 172 3500 
L 594 3500 
L 594 4494 
L 1172 4494 
z
" transform="scale(0.015625)"/>
      <path id="DejaVuSans-66" d="M 2375 4863 
L 2375 4384 
L 1825 4384 
Q 1516 4384 1395 4259 
Q 1275 4134 1275 3809 
L 1275 3500 
L 2222 3500 
L 2222 3053 
L 1275 3053 
L 1275 0 
L 697 0 
L 697 3053 
L 147 3053 
L 147 3500 
L 697 3500 
L 697 3744 
Q 697 4328 969 4595 
Q 1241 4863 1831 4863 
L 2375 4863 
z
" transform="scale(0.015625)"/>
      <path id="DejaVuSans-6e" d="M 3513 2113 
L 3513 0 
L 2938 0 
L 2938 2094 
Q 2938 2591 2744 2837 
Q 2550 3084 2163 3084 
Q 1697 3084 1428 2787 
Q 1159 2491 1159 1978 
L 1159 0 
L 581 0 
L 581 3500 
L 1159 3500 
L 1159 2956 
Q 1366 3272 1645 3428 
Q 1925 3584 2291 3584 
Q 2894 3584 3203 3211 
Q 3513 2838 3513 2113 
z
" transform="scale(0.015625)"/>
      <path id="DejaVuSans-41" d="M 2188 4044 
L 1331 1722 
L 3047 1722 
L 2188 4044 
z
M 1831 4666 
L 2547 4666 
L 4325 0 
L 3669 0 
L 3244 1197 
L 1141 1197 
L 716 0 
L 50 0 
L 1831 4666 
z
" transform="scale(0.015625)"/>
      <path id="DejaVuSans-61" d="M 2194 1759 
Q 1497 1759 1228 1600 
Q 959 1441 959 1056 
Q 959 750 1161 570 
Q 1363 391 1709 391 
Q 2188 391 2477 730 
Q 2766 1069 2766 1631 
L 2766 1759 
L 2194 1759 
z
M 3341 1997 
L 3341 0 
L 2766 0 
L 2766 531 
Q 2569 213 2275 61 
Q 1981 -91 1556 -91 
Q 1019 -91 701 211 
Q 384 513 384 1019 
Q 384 1609 779 1909 
Q 1175 2209 1959 2209 
L 2766 2209 
L 2766 2266 
Q 2766 2663 2505 2880 
Q 2244 3097 1772 3097 
Q 1472 3097 1187 3025 
Q 903 2953 641 2809 
L 641 3341 
Q 956 3463 1253 3523 
Q 1550 3584 1831 3584 
Q 2591 3584 2966 3190 
Q 3341 2797 3341 1997 
z
" transform="scale(0.015625)"/>
      <path id="DejaVuSans-6c" d="M 603 4863 
L 1178 4863 
L 1178 0 
L 603 0 
L 603 4863 
z
" transform="scale(0.015625)"/>
      <path id="DejaVuSans-79" d="M 2059 -325 
Q 1816 -950 1584 -1140 
Q 1353 -1331 966 -1331 
L 506 -1331 
L 506 -850 
L 844 -850 
Q 1081 -850 1212 -737 
Q 1344 -625 1503 -206 
L 1606 56 
L 191 3500 
L 800 3500 
L 1894 763 
L 2988 3500 
L 3597 3500 
L 2059 -325 
z
" transform="scale(0.015625)"/>
     </defs>
     <use xlink:href="#DejaVuSans-54"/>
     <use xlink:href="#DejaVuSans-77" transform="translate(44.583984 0)"/>
     <use xlink:href="#DejaVuSans-6f" transform="translate(126.371094 0)"/>
     <use xlink:href="#DejaVuSans-2d" transform="translate(189.427734 0)"/>
     <use xlink:href="#DejaVuSans-4d" transform="translate(225.511719 0)"/>
     <use xlink:href="#DejaVuSans-65" transform="translate(311.791016 0)"/>
     <use xlink:href="#DejaVuSans-73" transform="translate(373.314453 0)"/>
     <use xlink:href="#DejaVuSans-68" transform="translate(425.414062 0)"/>
     <use xlink:href="#DejaVuSans-20" transform="translate(488.792969 0)"/>
     <use xlink:href="#DejaVuSans-43" transform="translate(520.580078 0)"/>
     <use xlink:href="#DejaVuSans-69" transform="translate(590.404297 0)"/>
     <use xlink:href="#DejaVuSans-72" transform="translate(618.1875 0)"/>
     <use xlink:href="#DejaVuSans-63" transform="translate(657.050781 0)"/>
     <use xlink:href="#DejaVuSans-75" transform="translate(712.03125 0)"/>
     <use xlink:href="#DejaVuSans-69" transform="translate(775.410156 0)"/>
     <use xlink:href="#DejaVuSans-74" transform="translate(803.193359 0)"/>
     <use xlink:href="#DejaVuSans-20" transform="translate(842.402344 0)"/>
     <use xlink:href="#DejaVuSans-66" transform="translate(874.189453 0)"/>
     <use xlink:href="#DejaVuSans-6f" transform="translate(909.394531 0)"/>
     <use xlink:href="#DejaVuSans-72" transform="translate(970.576172 0)"/>
     <use xlink:href="#DejaVuSans-20" transform="translate(1011.689453 0)"/>
     <use xlink:href="#DejaVuSans-4d" transform="translate(1043.476562 0)"/>
     <use xlink:href="#DejaVuSans-65" transform="translate(1129.755859 0)"/>
     <use xlink:href="#DejaVuSans-73" transform="translate(1191.279297 0)"/>
     <use xlink:href="#DejaVuSans-68" transform="translate(1243.378906 0)"/>
     <use xlink:href="#DejaVuSans-20" transform="translate(1306.757812 0)"/>
     <use xlink:href="#DejaVuSans-43" transform="translate(1338.544922 0)"/>
     <use xlink:href="#DejaVuSans-75" transform="translate(1408.369141 0)"/>
     <use xlink:href="#DejaVuSans-72" transform="translate(1471.748047 0)"/>
     <use xlink:href="#DejaVuSans-72" transform="translate(1511.111328 0)"/>
     <use xlink:href="#DejaVuSans-65" transform="translate(1549.974609 0)"/>
     <use xlink:href="#DejaVuSans-6e" transform="translate(1611.498047 0)"/>
     <use xlink:href="#DejaVuSans-74" transform="translate(1674.876953 0)"/>
     <use xlink:href="#DejaVuSans-20" transform="translate(1714.085938 0)"/>
     <use xlink:href="#DejaVuSans-41" transform="translate(1745.873047 0)"/>
     <use xlink:href="#DejaVuSans-6e" transform="translate(1814.28125 0)"/>
     <use xlink:href="#DejaVuSans-61" transform="translate(1877.660156 0)"/>
     <use xlink:href="#DejaVuSans-6c" transform="translate(1938.939453 0)"/>
     <use xlink:href="#DejaVuSans-79" transform="translate(1966.722656 0)"/>
     <use xlink:href="#DejaVuSans-73" transform="translate(2025.902344 0)"/>
     <use xlink:href="#DejaVuSans-69" transform="translate(2078.001953 0)"/>
     <use xlink:href="#DejaVuSans-73" transform="translate(2105.785156 0)"/>
    </g>
   </g>
  </g>
 </g>
 <defs>
  <clipPath id="p1f61bcbaf1">
   <rect x="10.8" y="31.437813" width="356.4" height="277.2"/>
  </clipPath>
 </defs>
</svg>
